HIERARCHY
ROOT Hips
{
	OFFSET 56.877701 -32.693596 43.373703
	CHANNELS 6 Xposition Yposition Zposition Zrotation Xrotation Yrotation
	JOINT Chest
	{
		OFFSET -0.779999 1.005800 5.403099
		CHANNELS 6 Xposition Yposition Zposition Zrotation Xrotation Yrotation
		JOINT Chest2
		{
			OFFSET 0.000000 0.000000 4.236801
			CHANNELS 6 Xposition Yposition Zposition Zrotation Xrotation Yrotation
			JOINT Neck
			{
				OFFSET 0.000000 0.000000 9.874401
				CHANNELS 6 Xposition Yposition Zposition Zrotation Xrotation Yrotation
				JOINT Head
				{
					OFFSET 0.000000 0.000002 2.173893
					CHANNELS 6 Xposition Yposition Zposition Zrotation Xrotation Yrotation
					End Site
					{
						OFFSET 0.000000 0.000000 6.508102
					}
				}
			}
			JOINT LeftCollar
			{
				OFFSET 2.681599 -0.377600 5.432499
				CHANNELS 6 Xposition Yposition Zposition Zrotation Xrotation Yrotation
				JOINT LeftShoulder
				{
					OFFSET 5.161499 0.000000 0.000000
					CHANNELS 6 Xposition Yposition Zposition Zrotation Xrotation Yrotation
					JOINT LeftElbow
					{
						OFFSET 0.000000 0.000000 -10.869099
						CHANNELS 6 Xposition Yposition Zposition Zrotation Xrotation Yrotation
						JOINT LeftWrist
						{
							OFFSET 0.000000 0.000000 -13.344799
							CHANNELS 6 Xposition Yposition Zposition Zrotation Xrotation Yrotation
							End Site
							{
								OFFSET 0.000000 0.000000 -2.173901
							}
						}
					}
				}
			}
			JOINT RightCollar
			{
				OFFSET -2.381901 -1.419600 6.136600
				CHANNELS 6 Xposition Yposition Zposition Zrotation Xrotation Yrotation
				JOINT RightShoulder
				{
					OFFSET -4.550499 0.000000 0.000000
					CHANNELS 6 Xposition Yposition Zposition Zrotation Xrotation Yrotation
					JOINT RightElbow
					{
						OFFSET 0.000000 0.000000 -11.106499
						CHANNELS 6 Xposition Yposition Zposition Zrotation Xrotation Yrotation
						JOINT RightWrist
						{
							OFFSET 0.000000 0.000000 -12.874298
							CHANNELS 6 Xposition Yposition Zposition Zrotation Xrotation Yrotation
							End Site
							{
								OFFSET 0.000000 0.000000 -2.173901
							}
						}
					}
				}
			}
		}
	}
	JOINT LeftHip
	{
		OFFSET 2.431900 0.469601 -2.489399
		CHANNELS 6 Xposition Yposition Zposition Zrotation Xrotation Yrotation
		JOINT LeftKnee
		{
			OFFSET 0.000000 -0.000004 -18.200201
			CHANNELS 6 Xposition Yposition Zposition Zrotation Xrotation Yrotation
			JOINT LeftAnkle
			{
				OFFSET 0.000000 0.000000 -16.279900
				CHANNELS 6 Xposition Yposition Zposition Zrotation Xrotation Yrotation
				End Site
				{
					OFFSET 0.000000 -8.394100 0.000000
				}
			}
		}
	}
	JOINT RightHip
	{
		OFFSET -1.987999 -0.073502 -2.713001
		CHANNELS 6 Xposition Yposition Zposition Zrotation Xrotation Yrotation
		JOINT RightKnee
		{
			OFFSET 0.000000 -0.000004 -19.547802
			CHANNELS 6 Xposition Yposition Zposition Zrotation Xrotation Yrotation
			JOINT RightAnkle
			{
				OFFSET 0.000000 0.000000 -14.881199
				CHANNELS 6 Xposition Yposition Zposition Zrotation Xrotation Yrotation
				End Site
				{
					OFFSET 0.000000 -7.922699 0.000000
				}
			}
		}
	}
}
MOTION
Frames: 6
Frame Time: 0.041667
91.602798 -14.169199 41.519600 4627.771176 7.107456 -9.401158 -0.779993 1.005807 5.403094 8.399349 6.695978 -2.445416 0.000012 0.000004 4.236802 -2.795550 -0.322530 -0.105654 0.000003 0.000006 9.874398 13.442671 18.536293 27.805521 0.000006 0.000005 2.173894 1.708173 3.660233 4.861515 2.681598 -0.377597 5.432503 -23.200150 9.861536 3.638614 5.161501 0.000009 0.000002 214.748019 -160.064295 178.487624 0.000005 0.000017 -10.869090 67.141395 -19.318961 78.826127 0.000010 -0.000008 -13.344796 19.640117 -5.931525 -37.892920 -2.381896 -1.419597 6.136593 15.026181 2.638930 -0.104295 -4.550498 -0.000006 0.000001 -1272.151693 -515.726766 -526.194331 -0.000001 -0.000006 -11.106494 640.275593 -52.526456 635.810070 -0.000005 0.000006 -12.874299 -390.204992 -15.635275 59.266795 2.431903 0.469601 -2.489396 -336.213576 -26.538587 19.581169 0.000015 -0.000003 -18.200199 316.293302 48.462303 27.806508 0.000005 0.000010 -16.279894 21.782289 19.745365 -12.165138 -1.988000 -0.073502 -2.712999 -81.066375 -35.260196 -40.799411 0.000000 -0.000009 -19.547794 -1786.732244 42.250437 36.087919 0.000003 0.000007 -14.881197 2092.534785 153.632633 -574.281540
90.995903 -14.047297 41.595802 4630.144804 6.572540 -9.173315 -0.779998 1.005794 5.403096 8.631947 6.415589 -2.299059 0.000000 0.000001 4.236798 -2.964256 -0.269720 -0.103286 0.000006 0.000010 9.874395 14.240377 19.043411 27.319006 -0.000002 0.000007 2.173894 1.896807 3.654663 5.057843 2.681595 -0.377600 5.432501 -23.039075 9.677635 3.692866 5.161498 0.000002 -0.000000 215.781850 -160.740702 178.354394 -0.000004 -0.000001 -10.869097 68.062951 -19.463234 83.650590 0.000000 -0.000005 -13.344792 21.775160 -8.648080 -30.896740 -2.381891 -1.419589 6.136595 14.515617 2.080558 0.535234 -4.550502 -0.000005 -0.000006 -1273.434566 -515.870418 -525.877520 -0.000005 -0.000001 -11.106497 633.410980 -52.321845 625.920066 -0.000006 0.000000 -12.874295 -391.660095 -15.840838 56.169225 2.431896 0.469602 -2.489399 -336.697481 -25.805828 18.616809 0.000000 0.000006 -18.200195 315.081763 48.375249 27.905344 -0.000002 0.000006 -16.279898 21.002806 19.787055 -12.740190 -1.988008 -0.073509 -2.712997 -79.371224 -35.210865 -38.160332 -0.000005 -0.000009 -19.547798 -1785.952181 38.174989 32.557012 -0.000000 0.000009 -14.881197 2101.424959 154.681013 -579.202282
90.382797 -13.937498 41.669300 4632.832729 6.036762 -9.257804 -0.780003 1.005804 5.403101 8.471411 6.201631 -1.799418 0.000007 -0.000005 4.236798 -3.144106 -0.206980 -0.115425 0.000002 0.000009 9.874404 15.074849 19.384840 26.812908 0.000010 0.000002 2.173894 2.006979 3.806866 4.957734 2.681597 -0.377586 5.432508 -22.740053 9.399299 3.708318 5.161502 0.000006 0.000000 216.436674 -161.456561 178.133314 -0.000011 0.000002 -10.869102 69.173096 -20.406879 88.503747 0.000002 0.000003 -13.344804 25.942269 -13.251790 -20.113398 -2.381904 -1.419592 6.136607 13.521825 1.100409 1.356588 -4.550492 -0.000002 -0.000004 -1273.930383 -516.227282 -525.406291 -0.000005 0.000004 -11.106495 626.498610 -52.524042 616.289608 0.000010 -0.000001 -12.874290 -394.723080 -15.859346 51.817859 2.431893 0.469604 -2.489395 -337.269277 -24.969703 17.876898 0.000002 -0.000009 -18.200203 314.268342 48.297012 27.769398 -0.000003 0.000002 -16.279900 20.025252 19.683494 -13.301463 -1.988004 -0.073493 -2.712996 -79.607193 -34.986882 -36.517589 0.000000 -0.000010 -19.547810 -1784.652806 35.579292 29.581563 -0.000004 -0.000005 -14.881199 2107.941069 155.384194 -582.687700
89.759903 -13.857609 41.749702 4635.407437 5.524555 -9.212070 -0.780011 1.005808 5.403094 8.202203 5.933066 -1.200102 0.000010 -0.000003 4.236804 -3.160106 -0.115572 -0.103428 -0.000002 0.000007 9.874409 15.958346 19.760555 25.839444 0.000003 0.000005 2.173892 2.043964 3.748659 5.239608 2.681598 -0.377587 5.432503 -22.533158 9.109595 3.547921 5.161510 0.000005 0.000010 217.069054 -162.125154 177.760768 -0.000006 0.000000 -10.869099 70.528404 -20.121809 93.282188 -0.000010 0.000004 -13.344799 29.265977 -17.017201 -9.426964 -2.381898 -1.419593 6.136598 12.660860 0.230852 2.069937 -4.550490 0.000004 -0.000005 -1273.964589 -516.390496 -524.363950 0.000002 -0.000011 -11.106497 620.185985 -51.313039 607.627234 -0.000002 -0.000006 -12.874301 -397.350244 -15.275655 44.327012 2.431888 0.469604 -2.489392 -338.095129 -24.118960 16.901754 0.000003 -0.000003 -18.200199 313.869431 48.025044 27.352538 0.000002 0.000006 -16.279896 18.989637 19.603883 -13.745097 -1.988010 -0.073489 -2.712994 -79.313441 -35.032300 -34.613910 -0.000001 -0.000003 -19.547804 -1783.764335 34.301698 26.848413 -0.000005 -0.000001 -14.881200 2112.174693 155.683726 -583.826320
89.101791 -13.798599 41.842304 4638.282892 4.847485 -8.978788 -0.779982 1.005796 5.403097 7.399941 5.697807 -0.952531 0.000003 -0.000003 4.236807 -3.156766 0.029178 -0.084121 -0.000009 -0.000001 9.874394 16.989819 20.112740 24.946392 -0.000005 -0.000001 2.173893 1.959782 3.802181 5.461501 2.681598 -0.377599 5.432494 -22.095554 8.613870 3.375307 5.161507 0.000010 -0.000007 217.554885 -162.826819 177.493722 0.000008 0.000008 -10.869104 71.532790 -20.485194 97.659520 -0.000002 -0.000003 -13.344803 33.429804 -20.497411 1.684034 -2.381904 -1.419602 6.136590 12.166693 -0.376525 3.481728 -4.550505 -0.000006 -0.000009 -1274.850984 -516.413336 -524.063094 -0.000003 -0.000004 -11.106492 614.146896 -50.796738 599.150587 0.000004 -0.000003 -12.874302 -403.132737 -14.251312 34.501936 2.431918 0.469606 -2.489394 -339.132143 -23.130282 15.629851 -0.000002 -0.000002 -18.200203 314.214684 47.800423 26.373872 -0.000004 0.000004 -16.279896 17.651268 19.740492 -14.762247 -1.987991 -0.073501 -2.712994 -77.671497 -35.397814 -31.434177 0.000000 -0.000004 -19.547791 -1782.815977 34.205188 23.871933 -0.000003 -0.000006 -14.881201 2112.220373 156.238433 -584.206680
88.419998 -13.750399 41.953300 4641.189821 4.059203 -8.537832 -0.779993 1.005796 5.403099 6.327153 5.553263 -0.752734 -0.000000 0.000001 4.236804 -3.094250 0.227098 -0.056824 0.000003 -0.000005 9.874394 17.703405 20.281098 24.097239 0.000004 0.000002 2.173894 2.214576 3.622637 5.471719 2.681609 -0.377603 5.432493 -21.558001 7.922386 3.041542 5.161508 0.000014 0.000006 218.037861 -163.552787 177.150245 -0.000004 0.000003 -10.869095 72.915562 -20.999019 101.959623 -0.000005 0.000000 -13.344808 36.661758 -22.379704 12.352277 -2.381900 -1.419606 6.136588 11.854553 -1.045133 5.167520 -4.550487 -0.000008 0.000003 -1275.106925 -516.429019 -523.417067 0.000000 -0.000018 -11.106483 609.148509 -49.547080 592.182319 -0.000002 0.000001 -12.874298 -407.939660 -13.224576 23.773836 2.431914 0.469604 -2.489402 -339.964415 -21.999609 14.092767 0.000004 -0.000001 -18.200199 315.744810 47.734840 24.526048 -0.000002 0.000000 -16.279894 15.832990 20.083830 -17.333359 -1.987995 -0.073505 -2.712996 -75.926193 -35.379314 -28.014728 -0.000007 -0.000005 -19.547787 -1782.987114 34.066952 21.528575 -0.000001 0.000011 -14.881201 2111.437470 156.671835 -584.046635
